<!DOCTYPE svg PUBLIC "-//W3C//DTD SVG 20010904//EN" "http://www.w3.org/TR/2001/REC-SVG-20010904/DTD/svg10.dtd">
<svg version="1.0" xmlns="http://www.w3.org/2000/svg" width="600px" height="410px" viewBox="0 0 6000 4100" preserveAspectRatio="xMidYMid meet">
<g id="layer101" fill="#fefefe" stroke="none">
 <path d="M0 2050 l0 -2050 3000 0 3000 0 0 2050 0 2050 -3000 0 -3000 0 0 -2050z m3000 1567 c0 -7 -19 -22 -42 -34 -236 -115 -275 -290 -88 -400 50 -30 164 -63 216 -63 44 0 44 0 44 -35 l0 -35 108 2 c96 3 112 1 157 -21 55 -27 193 -159 220 -212 17 -31 16 -33 -1 -46 -10 -7 -41 -13 -68 -14 -70 -1 -31 -17 44 -19 l55 -1 -27 -22 c-16 -13 -77 -42 -138 -66 -60 -24 -130 -56 -154 -71 l-44 -28 -44 21 c-23 12 -60 22 -80 22 l-38 0 0 62 c0 62 -1 63 -27 64 -119 5 -235 19 -273 34 -45 18 -47 18 -133 -6 -48 -13 -87 -27 -87 -30 0 -4 84 -35 188 -69 103 -35 205 -73 227 -85 28 -16 46 -20 60 -15 32 14 100 11 120 -4 18 -13 18 -16 2 -66 -9 -29 -17 -60 -17 -70 0 -28 62 -76 156 -122 88 -42 124 -75 124 -113 0 -49 -32 -124 -71 -169 -58 -66 -70 -70 -110 -41 -41 31 -90 32 -167 4 -31 -12 -82 -30 -113 -41 l-56 -20 21 -41 c20 -40 21 -58 22 -437 l0 -395 -5 390 c-6 378 -7 391 -28 435 -17 33 -36 52 -71 72 -83 45 -133 141 -117 225 12 68 64 104 183 128 42 9 42 -9 1 -31 -22 -11 -28 -19 -21 -26 18 -18 61 1 105 46 28 29 54 46 77 51 31 6 41 2 83 -32 25 -21 69 -45 96 -53 l49 -15 -13 -40 c-20 -56 -92 -120 -154 -135 -58 -14 -96 -5 -208 46 -84 38 -96 40 -112 21 -15 -19 11 -102 48 -155 30 -40 31 -40 68 -30 21 6 71 23 111 39 92 37 166 39 207 7 l28 -22 42 46 c52 57 76 106 78 158 2 47 -9 58 -103 102 -36 16 -89 48 -118 70 -52 39 -54 41 -47 77 4 20 13 53 20 73 12 36 11 37 -15 48 -20 8 -38 9 -66 1 -34 -9 -43 -7 -88 18 -28 16 -116 50 -196 76 -158 52 -260 93 -260 106 0 5 19 13 43 19 23 6 58 16 77 23 l35 12 -37 3 c-21 2 -38 7 -38 12 0 20 94 131 143 168 88 68 138 86 245 86 88 1 92 1 92 23 0 18 -7 23 -37 28 -72 10 -128 26 -183 51 -118 54 -166 117 -158 210 6 66 38 115 113 168 30 22 53 42 51 44 -7 6 -160 -59 -211 -90 -134 -82 -411 -342 -527 -493 -222 -292 -300 -508 -334 -923 -8 -103 -26 -241 -39 -307 -34 -170 -42 -393 -19 -540 24 -153 19 -615 -6 -600 -5 3 -6 101 -3 218 4 165 2 238 -11 327 -25 180 -21 425 9 580 14 69 30 179 35 245 28 316 42 402 95 562 74 224 200 414 433 655 226 233 399 350 592 398 41 10 76 19 78 19 1 1 2 -5 2 -12z m-574 -1988 c10 -17 -13 -36 -27 -22 -12 12 -4 33 11 33 5 0 12 -5 16 -11z"/>
 <path d="M2908 3015 c-58 -21 -120 -68 -182 -136 -31 -35 -56 -66 -56 -70 0 -11 72 -17 105 -7 41 11 106 10 196 -3 41 -7 92 -9 112 -5 l37 7 0 114 0 115 -87 -1 c-49 0 -105 -7 -125 -14z"/>
 <path d="M3130 2917 l0 -113 73 13 c80 14 135 9 216 -18 59 -21 166 -25 176 -9 9 15 -12 45 -86 121 -35 37 -87 78 -116 93 -47 23 -64 26 -158 26 l-105 0 0 -113z"/>
 <path d="M3215 2795 c-5 -2 -27 -6 -47 -10 -31 -5 -38 -10 -38 -29 0 -20 6 -25 38 -28 20 -3 62 2 92 10 30 8 87 17 125 21 l70 6 -67 18 c-60 15 -146 21 -173 12z"/>
 <path d="M2810 2783 c0 -20 80 -36 193 -40 93 -2 117 0 117 11 0 10 -27 15 -107 20 -60 3 -129 9 -155 12 -28 4 -48 3 -48 -3z"/>
 <path d="M3290 2729 c-49 -10 -101 -16 -122 -13 l-38 6 0 -56 c0 -53 1 -56 25 -56 13 0 49 -9 78 -20 l55 -21 48 30 c27 16 97 48 156 71 59 23 110 46 113 51 3 5 0 6 -8 4 -7 -3 -42 1 -78 10 -82 19 -124 18 -229 -6z"/>
 <path d="M3045 2255 c-22 -24 -52 -47 -67 -50 -40 -10 -78 2 -78 24 0 47 -93 -18 -109 -76 -14 -51 16 -130 69 -178 25 -23 25 -19 0 30 -41 80 -35 135 14 135 11 0 63 -19 115 -41 83 -36 100 -41 152 -37 47 3 66 11 96 35 35 27 83 87 83 102 0 4 -19 12 -43 18 -23 7 -63 28 -87 47 -63 50 -94 48 -145 -9z"/>
 </g>
<g id="layer102" fill="#151515" stroke="none">
 <path d="M2920 3610 c-193 -48 -366 -165 -592 -398 -233 -241 -359 -431 -433 -655 -53 -160 -67 -246 -95 -562 -5 -66 -21 -176 -35 -245 -30 -155 -34 -400 -9 -580 13 -89 15 -162 11 -327 -3 -117 -2 -215 3 -218 25 -15 30 447 6 600 -23 147 -15 370 19 540 13 66 31 204 39 307 34 415 112 631 334 923 116 151 393 411 527 493 51 31 204 96 211 90 2 -2 -21 -22 -51 -44 -75 -53 -107 -102 -113 -168 -11 -131 115 -228 341 -261 30 -5 37 -10 37 -28 0 -22 -4 -22 -92 -23 -107 0 -157 -18 -245 -86 -49 -37 -143 -148 -143 -168 0 -5 17 -10 38 -12 l37 -3 -35 -12 c-19 -7 -54 -17 -77 -23 -24 -6 -43 -14 -43 -19 0 -13 102 -54 260 -106 80 -26 168 -60 196 -76 45 -25 54 -27 88 -18 28 8 46 7 66 -1 26 -11 27 -12 15 -48 -7 -20 -16 -53 -20 -73 -7 -36 -5 -38 47 -77 29 -22 82 -54 118 -70 94 -44 105 -55 103 -102 -2 -52 -26 -101 -78 -158 l-42 -46 -28 22 c-41 32 -115 30 -207 -7 -40 -16 -90 -33 -111 -39 -37 -10 -38 -10 -68 30 -37 53 -63 136 -48 155 16 19 28 17 112 -21 112 -51 150 -60 208 -46 62 15 134 79 154 135 l13 40 -49 15 c-27 8 -71 32 -96 53 -42 34 -52 38 -83 32 -23 -5 -49 -22 -77 -51 -44 -45 -87 -64 -105 -46 -7 7 -1 15 21 26 41 22 41 40 -1 31 -119 -24 -171 -60 -183 -128 -16 -84 34 -180 117 -225 35 -20 54 -39 71 -72 21 -44 22 -57 28 -435 l5 -390 0 395 c-1 379 -2 397 -22 437 l-21 41 56 20 c31 11 82 29 113 41 77 28 126 27 167 -4 40 -29 52 -25 110 41 39 45 71 120 71 169 0 38 -36 71 -124 113 -94 46 -156 94 -156 122 0 10 8 41 17 70 16 50 16 53 -2 66 -20 15 -88 18 -120 4 -14 -5 -32 -1 -60 15 -22 12 -124 50 -227 85 -104 34 -188 65 -188 69 0 3 39 17 87 30 86 24 88 24 133 6 38 -15 154 -29 273 -34 26 -1 27 -2 27 -64 l0 -62 38 0 c20 0 57 -10 80 -22 l44 -21 44 28 c24 15 94 47 154 71 61 24 122 53 138 66 l27 22 -55 1 c-75 2 -114 18 -44 19 27 1 58 7 68 14 17 13 18 15 1 46 -27 53 -165 185 -220 212 -45 22 -61 24 -157 21 l-108 -2 0 35 c0 35 0 35 -44 35 -82 0 -214 50 -274 104 -33 29 -62 89 -62 127 0 79 82 171 208 232 23 12 42 27 42 34 0 7 -1 13 -2 12 -2 0 -37 -9 -78 -19z m200 -695 l0 -114 -37 -7 c-20 -4 -71 -2 -112 5 -90 13 -155 14 -196 3 -33 -10 -105 -4 -105 7 0 15 114 133 156 162 66 45 110 58 207 58 l87 1 0 -115z m273 89 c29 -15 81 -56 116 -93 74 -76 95 -106 86 -121 -10 -16 -117 -12 -176 9 -81 27 -136 32 -216 18 l-73 -13 0 113 0 113 105 0 c94 0 111 -3 158 -26z m-5 -221 l67 -18 -70 -6 c-38 -4 -95 -13 -125 -21 -30 -8 -72 -13 -92 -10 -32 3 -38 8 -38 28 0 19 7 24 38 29 20 4 42 8 47 10 27 9 113 3 173 -12z m-375 -9 c80 -5 107 -10 107 -20 0 -19 -219 -13 -272 6 -53 20 -48 34 10 26 26 -3 95 -9 155 -12z m506 -39 c36 -9 71 -13 78 -10 8 2 11 1 8 -4 -3 -5 -54 -28 -113 -51 -59 -23 -129 -55 -156 -71 l-48 -30 -55 21 c-29 11 -65 20 -78 20 -24 0 -25 3 -25 56 l0 56 38 -6 c21 -3 73 3 122 13 105 24 147 25 229 6z m-329 -471 c24 -19 64 -40 87 -47 24 -6 43 -14 43 -18 0 -15 -48 -75 -83 -102 -30 -24 -49 -32 -96 -35 -52 -4 -69 1 -152 37 -52 22 -104 41 -115 41 -49 0 -55 -55 -14 -135 25 -49 25 -53 0 -30 -53 48 -83 127 -69 178 16 58 109 123 109 76 0 -22 38 -34 78 -24 15 3 45 26 67 50 51 57 82 59 145 9z"/>
 <path d="M2394 1629 c-10 -17 13 -36 27 -22 12 12 4 33 -11 33 -5 0 -12 -5 -16 -11z"/>
 </g>

</svg>