<?xml version="1.0" standalone="no"?>
<!DOCTYPE svg PUBLIC "-//W3C//DTD SVG 20010904//EN"
 "http://www.w3.org/TR/2001/REC-SVG-20010904/DTD/svg10.dtd">
<svg version="1.0" xmlns="http://www.w3.org/2000/svg"
 width="1131.000000pt" height="827.000000pt" viewBox="0 0 1131.000000 827.000000"
 preserveAspectRatio="xMidYMid meet">

<g transform="translate(0.000000,827.000000) scale(0.100000,-0.100000)"
fill="#000000" stroke="none">
<path d="M5056 7032 c-7 -12 6 -203 28 -402 18 -157 43 -554 54 -856 12 -308
2 -389 -89 -758 -45 -183 -47 -211 -18 -269 53 -104 150 -186 310 -261 172
-80 300 -95 481 -57 178 37 266 85 338 186 8 12 38 29 65 39 52 19 145 76 145
89 0 4 4 7 9 7 14 0 -22 -99 -52 -148 -14 -22 -47 -65 -72 -97 l-47 -57 82
-75 c44 -41 87 -88 95 -104 9 -16 15 -55 15 -91 -1 -71 -17 -208 -26 -217 -11
-12 -150 146 -223 254 -77 112 -136 185 -152 185 -5 0 -9 -41 -9 -91 0 -50 -4
-98 -10 -108 -5 -10 -27 -26 -49 -34 -126 -51 -382 -213 -611 -388 -209 -161
-294 -232 -289 -244 2 -5 22 -9 43 -8 l39 2 -46 -47 c-26 -26 -47 -53 -47 -59
0 -8 25 -10 88 -6 80 5 100 2 227 -32 241 -65 362 -127 526 -268 214 -183 328
-252 438 -263 56 -6 59 -5 79 23 31 44 43 81 44 138 l1 50 14 -35 c26 -62 7
-121 -84 -263 -26 -39 -70 -116 -98 -170 l-52 -98 -56 73 c-68 89 -264 270
-367 339 -83 57 -346 188 -485 242 -155 62 -275 85 -275 53 0 -24 60 -159 132
-296 150 -285 283 -451 410 -510 111 -52 189 -63 373 -54 88 4 189 8 225 8
l65 1 61 -118 c114 -222 148 -372 126 -569 -7 -62 -24 -146 -38 -188 -109
-323 -416 -547 -899 -654 -222 -49 -313 -57 -680 -59 -205 -1 -320 -6 -320
-12 0 -17 106 -23 415 -24 309 -1 396 6 595 49 221 48 444 137 593 239 86 58
203 179 256 263 139 224 172 510 87 760 -31 91 -130 296 -156 322 -20 20 -93
21 -290 5 -328 -28 -489 49 -667 316 -73 111 -191 331 -237 443 l-30 72 42 -6
c146 -21 535 -197 713 -322 95 -68 283 -249 356 -344 32 -43 64 -75 71 -72 6
2 36 50 64 107 29 56 75 137 103 179 71 109 92 153 98 203 7 67 -3 101 -62
207 -50 92 -53 100 -45 140 5 24 12 113 15 198 5 121 3 176 -10 250 -27 159
-24 154 -85 161 -61 8 -115 41 -179 110 -55 60 -67 61 -204 13 -254 -90 -573
-272 -718 -410 -20 -19 -51 -37 -70 -40 -39 -7 -41 -9 45 62 199 167 494 368
687 469 69 36 132 73 139 82 9 10 14 43 14 94 0 63 2 75 13 66 8 -6 54 -70
102 -141 93 -138 181 -242 222 -264 18 -10 28 -28 36 -64 7 -27 23 -69 37 -93
35 -59 182 -208 222 -224 39 -16 111 2 217 56 93 47 139 63 211 73 65 10 175
2 175 -11 0 -5 -5 -9 -11 -9 -34 0 -162 -66 -211 -109 -86 -77 -139 -226 -123
-346 16 -122 126 -275 197 -275 198 -1 383 -9 425 -20 29 -7 56 -11 59 -7 4 3
-34 58 -82 122 -168 220 -177 234 -171 280 3 22 24 76 46 120 23 44 41 88 41
97 0 9 -22 44 -50 77 -37 44 -46 61 -35 65 8 3 15 14 15 25 0 21 -12 25 -105
37 -27 3 -81 19 -120 35 -69 27 -158 46 -325 69 -101 13 -231 42 -318 71 -57
19 -63 24 -58 43 4 11 12 76 18 142 11 109 10 126 -6 167 -10 27 -35 61 -59
83 -23 21 -61 55 -85 76 l-43 40 39 51 c71 93 92 132 110 202 10 39 25 81 34
95 75 113 65 238 -33 403 -97 163 -169 202 -410 223 l-76 6 -36 -43 c-69 -85
-177 -299 -177 -352 0 -11 28 -17 113 -26 389 -42 520 -80 560 -163 14 -29 14
-34 -2 -54 -30 -38 -76 -73 -132 -99 -67 -31 -78 -31 -137 -1 -104 53 -220 61
-385 26 -107 -22 -117 -25 -117 -43 0 -17 111 -86 167 -104 59 -18 158 -12
262 17 40 12 75 19 77 17 2 -2 -15 -22 -39 -44 -69 -68 -265 -125 -420 -125
-180 2 -460 138 -545 267 -58 88 -58 93 -8 292 89 356 99 445 86 760 -23 542
-48 875 -90 1183 -10 74 -22 101 -34 82z m1014 -1651 c181 -31 232 -71 320
-248 51 -100 61 -171 35 -239 l-17 -46 -30 36 c-40 48 -100 82 -178 100 -89
20 -361 56 -427 56 -29 0 -53 2 -53 5 0 2 11 35 25 72 28 75 82 175 128 241
36 50 41 50 197 23z m-5 -698 l40 -21 -40 -11 c-104 -27 -174 -41 -216 -41
-52 0 -123 22 -158 49 l-25 19 60 12 c32 6 64 13 69 15 6 3 60 3 120 2 88 -3
118 -8 150 -24z m53 -702 c64 -66 122 -99 178 -103 l38 -3 17 -83 c25 -123 32
-253 19 -375 -6 -59 -13 -114 -17 -123 -5 -12 -35 14 -122 106 l-116 121 -65
14 c-39 8 -93 29 -134 54 -90 52 -186 75 -281 66 -38 -4 -142 -20 -230 -36
-208 -38 -208 -38 -149 12 151 126 475 303 684 373 58 20 108 36 113 36 4 0
33 -26 65 -59z m432 -117 c47 -14 144 -34 215 -44 210 -32 308 -51 335 -66 24
-13 24 -13 -21 -14 -54 0 -128 -24 -224 -72 -39 -20 -94 -43 -123 -52 -69 -20
-82 -14 -184 92 -92 94 -152 207 -100 187 9 -3 55 -18 102 -31z m805 -275 l45
-61 -40 -71 c-52 -96 -67 -156 -49 -199 7 -18 47 -75 89 -128 42 -52 86 -110
100 -129 21 -31 22 -34 4 -26 -10 5 -108 9 -216 10 -228 0 -229 0 -285 101
-46 83 -58 150 -44 238 17 101 60 175 129 224 49 33 191 101 215 102 4 0 27
-27 52 -61z m-1580 7 c28 -7 90 -34 139 -60 48 -25 98 -46 109 -47 52 -1 90
-29 206 -153 67 -71 121 -136 121 -146 0 -9 11 -44 25 -78 29 -71 31 -132 7
-182 -16 -33 -19 -34 -67 -31 -104 6 -229 80 -428 254 -145 127 -291 203 -507
263 -109 31 -152 38 -222 39 l-88 0 39 39 c38 38 40 38 192 63 85 14 190 31
234 38 106 17 179 18 240 1z"/>
<path d="M4330 5735 c-18 -21 -8 -50 19 -53 37 -6 52 26 25 52 -19 20 -28 20
-44 1z"/>
<path d="M4657 5723 c-26 -26 12 -80 47 -67 21 8 30 42 16 59 -13 15 -51 20
-63 8z"/>
<path d="M4505 5450 c-8 -14 3 -30 21 -30 8 0 14 9 14 20 0 21 -24 28 -35 10z"/>
</g>
</svg>
